# xmcd
#
# Track frame offsets:
#	150
#	17600
#	33602
#	51225
#	64525
#	84265
#	99755
#	117400
#	134420
#	154027
#	171680
#	188455
#	207515
#
# Disc length: 3040 seconds
#
# Revision: 8
# Processed by: cddbd v1.5.2PL0 Copyright (c) Steve Scherf et al.
# Submitted via: EasyCDDAExtractor 10.2.0.1
#
DISCID=aa0bde0d
DTITLE=Backstreet Boys - Millennium
DYEAR=1999
DGENRE=Pop
TTITLE0=Larger Than Life
TTITLE1=I Want It That Way
TTITLE2=Show Me The Meaning Of Being Lonely
TTITLE3=It's Gotta Be You
TTITLE4=I Need You Tonight
TTITLE5=Don't Want You Back
TTITLE6=Don't  Wanna Lose You Now
TTITLE7=The One
TTITLE8=Back To Your Heart
TTITLE9=Spanish Eyes
TTITLE10=No One Else Comes Close
TTITLE11=The Perfect Fan
TTITLE12=I'll Be There For You
EXTD=
EXTT0=
EXTT1=
EXTT2=
EXTT3=
EXTT4=
EXTT5=
EXTT6=
EXTT7=
EXTT8=
EXTT9=
EXTT10=
EXTT11=
EXTT12=
PLAYORDER=
